<mxfile host="app.diagrams.net" modified="2022-06-10T10:49:21.691Z" agent="5.0 (Windows NT 10.0; Win64; x64) AppleWebKit/537.36 (KHTML, like Gecko) Chrome/102.0.0.0 Safari/537.36" etag="LD1e9Bf8YOCa8BkFoB09" version="19.0.3" type="github">
  <diagram id="_oOT7E-q7vtRDTMMootX" name="Page-1">
    <mxGraphModel dx="1778" dy="953" grid="1" gridSize="10" guides="1" tooltips="1" connect="1" arrows="1" fold="1" page="1" pageScale="1" pageWidth="1100" pageHeight="850" background="none" math="0" shadow="0">
      <root>
        <mxCell id="0" />
        <mxCell id="1" parent="0" />
        <mxCell id="WD3ALiDRtXTudYih0hBq-5" value="&lt;b&gt;&lt;font style=&quot;font-size: 27px&quot;&gt;FE&lt;/font&gt;&lt;/b&gt;" style="text;html=1;align=center;verticalAlign=middle;resizable=0;points=[];autosize=1;strokeColor=none;fillColor=none;fontSize=13;" parent="1" vertex="1">
          <mxGeometry x="275" y="190" width="50" height="30" as="geometry" />
        </mxCell>
        <mxCell id="WD3ALiDRtXTudYih0hBq-8" value="&lt;font style=&quot;&quot;&gt;&lt;b style=&quot;&quot;&gt;&lt;font style=&quot;font-size: 40px;&quot;&gt;배경도&lt;/font&gt;&lt;/b&gt;&lt;br&gt;&lt;/font&gt;" style="text;html=1;align=center;verticalAlign=middle;resizable=0;points=[];autosize=1;strokeColor=none;fillColor=none;fontSize=13;" parent="1" vertex="1">
          <mxGeometry x="10" y="180" width="140" height="30" as="geometry" />
        </mxCell>
        <mxCell id="F8nuYtDUGBIG6I0Ywhw5-11" value="" style="edgeStyle=orthogonalEdgeStyle;rounded=0;orthogonalLoop=1;jettySize=auto;html=1;fontSize=18;strokeWidth=5;" parent="1" source="WD3ALiDRtXTudYih0hBq-17" target="F8nuYtDUGBIG6I0Ywhw5-10" edge="1">
          <mxGeometry relative="1" as="geometry">
            <Array as="points">
              <mxPoint x="300" y="560" />
              <mxPoint x="300" y="560" />
            </Array>
          </mxGeometry>
        </mxCell>
        <mxCell id="WD3ALiDRtXTudYih0hBq-17" value="&lt;b&gt;&lt;font style=&quot;font-size: 20px;&quot;&gt;예약&lt;/font&gt;&lt;/b&gt;" style="rounded=0;whiteSpace=wrap;html=1;fontSize=17;fillColor=none;strokeWidth=5;" parent="1" vertex="1">
          <mxGeometry x="250" y="448" width="120" height="42" as="geometry" />
        </mxCell>
        <mxCell id="WD3ALiDRtXTudYih0hBq-21" value="&lt;span style=&quot;&quot;&gt;&lt;b&gt;시간, 인원, &lt;br&gt;예약 좌석 입력&lt;/b&gt;&lt;/span&gt;" style="rounded=0;whiteSpace=wrap;html=1;fontSize=17;fillColor=none;strokeWidth=5;" parent="1" vertex="1">
          <mxGeometry x="234.25" y="760" width="120" height="60" as="geometry" />
        </mxCell>
        <mxCell id="WD3ALiDRtXTudYih0hBq-29" value="&lt;b&gt;&lt;font style=&quot;font-size: 27px&quot;&gt;BE&lt;/font&gt;&lt;/b&gt;" style="text;html=1;align=center;verticalAlign=middle;resizable=0;points=[];autosize=1;strokeColor=none;fillColor=none;fontSize=13;" parent="1" vertex="1">
          <mxGeometry x="870" y="200" width="50" height="30" as="geometry" />
        </mxCell>
        <mxCell id="F8nuYtDUGBIG6I0Ywhw5-1" value="&lt;span style=&quot;font-size: 20px;&quot;&gt;&lt;b&gt;yeab&lt;br&gt;&lt;/b&gt;&lt;/span&gt;" style="ellipse;whiteSpace=wrap;html=1;aspect=fixed;fillColor=none;strokeWidth=5;" parent="1" vertex="1">
          <mxGeometry x="240" y="240" width="130" height="130" as="geometry" />
        </mxCell>
        <mxCell id="F8nuYtDUGBIG6I0Ywhw5-10" value="&lt;b&gt;대표 예약자의 전화번호 입력&lt;br&gt;&lt;/b&gt;" style="rounded=0;whiteSpace=wrap;html=1;fontSize=17;fillColor=none;strokeWidth=5;" parent="1" vertex="1">
          <mxGeometry x="235" y="600" width="120" height="60" as="geometry" />
        </mxCell>
        <mxCell id="F8nuYtDUGBIG6I0Ywhw5-18" value="&lt;font size=&quot;1&quot;&gt;&lt;b style=&quot;font-size: 19px;&quot;&gt;단일 선택 기능&lt;/b&gt;&lt;/font&gt;" style="text;html=1;align=center;verticalAlign=middle;resizable=0;points=[];autosize=1;strokeColor=none;fillColor=none;fontSize=15;" parent="1" vertex="1">
          <mxGeometry x="355" y="390" width="140" height="30" as="geometry" />
        </mxCell>
        <mxCell id="F8nuYtDUGBIG6I0Ywhw5-19" value="" style="endArrow=classic;html=1;rounded=0;fontSize=13;strokeWidth=5;endFill=1;entryX=0.5;entryY=0;entryDx=0;entryDy=0;entryPerimeter=0;edgeStyle=orthogonalEdgeStyle;exitX=1;exitY=0.25;exitDx=0;exitDy=0;" parent="1" edge="1" target="CsCu8Was7VCDflERSzQh-2" source="F8nuYtDUGBIG6I0Ywhw5-25">
          <mxGeometry width="50" height="50" relative="1" as="geometry">
            <mxPoint x="510" y="580" as="sourcePoint" />
            <mxPoint x="1270" y="650" as="targetPoint" />
          </mxGeometry>
        </mxCell>
        <mxCell id="F8nuYtDUGBIG6I0Ywhw5-21" value="&lt;font style=&quot;font-size: 19px;&quot;&gt;예약 번호 조회 요청&lt;/font&gt;" style="edgeLabel;html=1;align=center;verticalAlign=middle;resizable=0;points=[];fontSize=16;fontStyle=1" parent="F8nuYtDUGBIG6I0Ywhw5-19" vertex="1" connectable="0">
          <mxGeometry x="-0.3017" y="1" relative="1" as="geometry">
            <mxPoint x="-62" y="6" as="offset" />
          </mxGeometry>
        </mxCell>
        <mxCell id="F8nuYtDUGBIG6I0Ywhw5-25" value="&lt;b&gt;대표 예약자 &lt;br&gt;전화번호 입력&lt;/b&gt;" style="whiteSpace=wrap;html=1;fontSize=17;rounded=0;fillColor=none;strokeWidth=5;" parent="1" vertex="1">
          <mxGeometry x="390.5" y="540" width="120" height="60" as="geometry" />
        </mxCell>
        <mxCell id="F8nuYtDUGBIG6I0Ywhw5-37" value="" style="endArrow=classic;html=1;rounded=0;fontSize=16;strokeWidth=5;entryX=0.5;entryY=0;entryDx=0;entryDy=0;exitX=0.5;exitY=1;exitDx=0;exitDy=0;" parent="1" target="WD3ALiDRtXTudYih0hBq-21" edge="1" source="F8nuYtDUGBIG6I0Ywhw5-10">
          <mxGeometry width="50" height="50" relative="1" as="geometry">
            <mxPoint x="300" y="711" as="sourcePoint" />
            <mxPoint x="294.9200000000001" y="750.78" as="targetPoint" />
          </mxGeometry>
        </mxCell>
        <mxCell id="F8nuYtDUGBIG6I0Ywhw5-43" value="" style="endArrow=none;dashed=1;html=1;dashPattern=1 3;strokeWidth=2;rounded=0;fontSize=16;" parent="1" edge="1">
          <mxGeometry width="50" height="50" relative="1" as="geometry">
            <mxPoint x="732" y="1010" as="sourcePoint" />
            <mxPoint x="732" y="210" as="targetPoint" />
          </mxGeometry>
        </mxCell>
        <mxCell id="PGFgDYh8lfL1F4q3mQJU-40" value="&lt;span style=&quot;font-size: 18px;&quot;&gt;&lt;b&gt;학교 주변 식당 보기&amp;nbsp;&lt;/b&gt;&lt;/span&gt;" style="rounded=0;whiteSpace=wrap;html=1;labelBackgroundColor=none;fontSize=27;fillColor=none;strokeWidth=6;" parent="1" vertex="1">
          <mxGeometry x="11.75" y="448" width="222.5" height="42" as="geometry" />
        </mxCell>
        <mxCell id="PGFgDYh8lfL1F4q3mQJU-45" value="" style="endArrow=classic;html=1;rounded=0;fontSize=18;strokeWidth=5;entryX=0.458;entryY=0;entryDx=0;entryDy=0;entryPerimeter=0;exitX=0.5;exitY=1;exitDx=0;exitDy=0;" parent="1" target="F8nuYtDUGBIG6I0Ywhw5-25" edge="1" source="F8nuYtDUGBIG6I0Ywhw5-15">
          <mxGeometry width="50" height="50" relative="1" as="geometry">
            <mxPoint x="445" y="508" as="sourcePoint" />
            <mxPoint x="495" y="458" as="targetPoint" />
          </mxGeometry>
        </mxCell>
        <mxCell id="CsCu8Was7VCDflERSzQh-2" value="&lt;font style=&quot;font-size: 20px;&quot;&gt;&lt;b&gt;예약번호 및 전화번호&amp;nbsp;&lt;/b&gt;&lt;/font&gt;" style="strokeWidth=5;html=1;shape=mxgraph.flowchart.annotation_1;align=left;pointerEvents=1;fontSize=36;fillColor=none;" vertex="1" parent="1">
          <mxGeometry x="850" y="630" width="210" height="40" as="geometry" />
        </mxCell>
        <mxCell id="CsCu8Was7VCDflERSzQh-3" value="" style="endArrow=none;html=1;rounded=0;fontSize=19;strokeWidth=5;entryX=0.5;entryY=1;entryDx=0;entryDy=0;" edge="1" parent="1" target="F8nuYtDUGBIG6I0Ywhw5-1">
          <mxGeometry width="50" height="50" relative="1" as="geometry">
            <mxPoint x="305" y="430" as="sourcePoint" />
            <mxPoint x="560" y="480" as="targetPoint" />
          </mxGeometry>
        </mxCell>
        <mxCell id="F8nuYtDUGBIG6I0Ywhw5-15" value="&lt;b&gt;예약 번호 조회&lt;/b&gt;" style="rounded=0;whiteSpace=wrap;html=1;fontSize=17;fillColor=none;strokeWidth=5;" parent="1" vertex="1">
          <mxGeometry x="386.5" y="448" width="120" height="42" as="geometry" />
        </mxCell>
        <mxCell id="CsCu8Was7VCDflERSzQh-5" value="" style="shape=link;html=1;rounded=0;fontSize=18;strokeWidth=6;width=76.36363636363636;endArrow=none;entryX=1;entryY=0.5;entryDx=0;entryDy=0;" edge="1" parent="1" target="F8nuYtDUGBIG6I0Ywhw5-15">
          <mxGeometry width="100" relative="1" as="geometry">
            <mxPoint x="30.5" y="468.54999999999995" as="sourcePoint" />
            <mxPoint x="530.5" y="468.54999999999995" as="targetPoint" />
          </mxGeometry>
        </mxCell>
        <mxCell id="CsCu8Was7VCDflERSzQh-6" value="" style="rounded=0;orthogonalLoop=1;jettySize=auto;html=1;fontSize=18;strokeWidth=5;exitX=0.5;exitY=1;exitDx=0;exitDy=0;entryX=0.5;entryY=0;entryDx=0;entryDy=0;" edge="1" parent="1" source="PGFgDYh8lfL1F4q3mQJU-40" target="CsCu8Was7VCDflERSzQh-7">
          <mxGeometry relative="1" as="geometry">
            <mxPoint x="169.99999999999977" y="520" as="sourcePoint" />
            <mxPoint x="120" y="630" as="targetPoint" />
          </mxGeometry>
        </mxCell>
        <mxCell id="CsCu8Was7VCDflERSzQh-7" value="&lt;span style=&quot;font-size: 18px;&quot;&gt;&lt;b&gt;네이버 지도&lt;br&gt;링크 출력&lt;br&gt;&lt;/b&gt;&lt;/span&gt;" style="rounded=0;whiteSpace=wrap;html=1;fontSize=17;fillColor=none;strokeWidth=5;" vertex="1" parent="1">
          <mxGeometry x="63" y="600" width="120" height="60" as="geometry" />
        </mxCell>
        <mxCell id="CsCu8Was7VCDflERSzQh-10" value="&lt;b style=&quot;font-size: 18px;&quot;&gt;완성된 &lt;br&gt;예약번호 출력&lt;br&gt;&lt;/b&gt;" style="rounded=0;whiteSpace=wrap;html=1;fontSize=17;fillColor=none;strokeWidth=5;" vertex="1" parent="1">
          <mxGeometry x="234.25" y="900" width="120" height="60" as="geometry" />
        </mxCell>
        <mxCell id="CsCu8Was7VCDflERSzQh-11" value="" style="endArrow=classic;html=1;rounded=0;fontSize=17;strokeWidth=5;exitX=0.5;exitY=1;exitDx=0;exitDy=0;entryX=0.5;entryY=0;entryDx=0;entryDy=0;" edge="1" parent="1" source="WD3ALiDRtXTudYih0hBq-21" target="CsCu8Was7VCDflERSzQh-10">
          <mxGeometry width="50" height="50" relative="1" as="geometry">
            <mxPoint x="490" y="760" as="sourcePoint" />
            <mxPoint x="540" y="710" as="targetPoint" />
          </mxGeometry>
        </mxCell>
        <mxCell id="CsCu8Was7VCDflERSzQh-15" value="&lt;b&gt;예약번호 출력&lt;/b&gt;" style="whiteSpace=wrap;html=1;fontSize=17;rounded=0;fillColor=none;strokeWidth=5;" vertex="1" parent="1">
          <mxGeometry x="390.5" y="650" width="120" height="60" as="geometry" />
        </mxCell>
        <mxCell id="CsCu8Was7VCDflERSzQh-16" value="" style="endArrow=classic;html=1;rounded=0;fontSize=18;strokeWidth=5;exitX=0.5;exitY=1;exitDx=0;exitDy=0;entryX=0.5;entryY=0;entryDx=0;entryDy=0;" edge="1" parent="1" source="F8nuYtDUGBIG6I0Ywhw5-25" target="CsCu8Was7VCDflERSzQh-15">
          <mxGeometry width="50" height="50" relative="1" as="geometry">
            <mxPoint x="550" y="660" as="sourcePoint" />
            <mxPoint x="600" y="610" as="targetPoint" />
          </mxGeometry>
        </mxCell>
        <mxCell id="CsCu8Was7VCDflERSzQh-18" value="" style="endArrow=classic;html=1;rounded=0;fontSize=18;strokeWidth=5;entryX=1;entryY=0.5;entryDx=0;entryDy=0;exitX=0;exitY=0.5;exitDx=0;exitDy=0;exitPerimeter=0;edgeStyle=orthogonalEdgeStyle;" edge="1" parent="1" source="CsCu8Was7VCDflERSzQh-2" target="CsCu8Was7VCDflERSzQh-15">
          <mxGeometry width="50" height="50" relative="1" as="geometry">
            <mxPoint x="550" y="660" as="sourcePoint" />
            <mxPoint x="600" y="610" as="targetPoint" />
          </mxGeometry>
        </mxCell>
        <mxCell id="CsCu8Was7VCDflERSzQh-19" value="" style="endArrow=classic;html=1;rounded=0;fontSize=18;strokeWidth=5;exitX=1;exitY=0.5;exitDx=0;exitDy=0;entryX=0.5;entryY=1;entryDx=0;entryDy=0;entryPerimeter=0;edgeStyle=orthogonalEdgeStyle;" edge="1" parent="1" source="CsCu8Was7VCDflERSzQh-10" target="CsCu8Was7VCDflERSzQh-2">
          <mxGeometry width="50" height="50" relative="1" as="geometry">
            <mxPoint x="620" y="780" as="sourcePoint" />
            <mxPoint x="670" y="730" as="targetPoint" />
          </mxGeometry>
        </mxCell>
        <mxCell id="CsCu8Was7VCDflERSzQh-20" value="&lt;b&gt;예약 번호 및 예약자의 HASH 처리한 전화번호 데이터 베이스에 저장&lt;/b&gt;" style="edgeLabel;html=1;align=center;verticalAlign=middle;resizable=0;points=[];fontSize=18;" vertex="1" connectable="0" parent="CsCu8Was7VCDflERSzQh-19">
          <mxGeometry x="-0.6019" y="3" relative="1" as="geometry">
            <mxPoint x="124" y="3" as="offset" />
          </mxGeometry>
        </mxCell>
      </root>
    </mxGraphModel>
  </diagram>
</mxfile>
